PathFileType	4	(X/Y/Z)	D:\telocate\uwb04-Unnamed.trc
DataRate	CameraRate	NumFrames	NumMarkers	Units	OrigDataRate	OrigDataStartFrame	OrigNumFrames
100.00	100.00	     152	0	mm	100.00	1253	     10016
Frame#	Time	
		

1253	12.520	81.01841	-2032.26746	1230.96680	
1254	12.530	83.85919	-2031.65906	1231.20093	
1255	12.540	86.01116	-2031.06458	1231.60889	
1256	12.550	86.42182	-2030.57617	1231.68066	
1257	12.560	90.08694	-2029.78308	1231.77625	
1258	12.570	93.40910	-2029.14063	1232.15881	
1259	12.580	96.17984	-2028.61829	1232.14172	
1260	12.590	100.15219	-2027.90918	1232.72229	
1261	12.600	103.23251	-2027.42126	1232.44348	
1262	12.610	106.38191	-2026.96729	1232.42566	
1263	12.620	108.78191	-2026.16162	1232.34106	
1264	12.630	111.42529	-2025.94519	1232.33118	
1265	12.640	114.42970	-2025.27625	1232.02856	
1266	12.650	117.29314	-2024.88892	1231.50732	
1267	12.660	120.66769	-2024.38135	1231.22375	
1268	12.670	127.21940	-2024.06470	1231.09705	
1269	12.680	129.37947	-2024.71460	1230.97791	
1270	12.690	133.25522	-2024.47473	1230.61658	
1271	12.700	137.14635	-2024.19788	1230.82031	
1272	12.710	140.19955	-2023.96570	1230.44934	
1273	12.720	145.42021	-2023.40381	1230.17615	
1274	12.730	148.67134	-2023.07922	1230.37512	
1275	12.740	151.99243	-2022.73547	1230.21667	
1276	12.750	155.41428	-2022.39294	1230.18848	
1277	12.760	156.90836	-2022.22375	1230.59351	
1278	12.770	161.09079	-2022.04053	1230.43640	
1279	12.780	165.79485	-2021.93481	1230.23059	
1280	12.790	169.71768	-2021.91602	1230.26990	
1281	12.800	173.26134	-2022.15674	1230.78625	
1282	12.810	176.48032	-2022.15002	1230.85474	
1283	12.820	178.81596	-2021.92480	1231.23242	
1284	12.830	181.23895	-2021.76038	1231.13794	
1285	12.840	184.57159	-2021.43640	1230.86536	
1286	12.850	190.06641	-2021.73645	1230.89185	
1287	12.860	194.07088	-2021.39624	1231.02441	
1288	12.870	195.62642	-2021.90649	1231.07739	
1289	12.880	200.49780	-2021.82996	1230.86963	
1290	12.890	204.39949	-2021.75000	1230.65588	
1291	12.900	208.10768	-2021.74451	1230.55579	
1292	12.910	215.07155	-2021.66418	1230.01196	
1293	12.920	219.32780	-2021.63110	1230.10217	
1294	12.930	223.47812	-2021.51147	1229.61145	
1295	12.940	226.77031	-2022.38770	1229.42041	
1296	12.950	232.09070	-2022.07751	1229.11328	
1297	12.960	238.00732	-2022.05103	1228.97961	
1298	12.970	242.55020	-2022.64148	1228.78125	
1299	12.980	246.40776	-2023.29150	1228.70471	
1300	12.990	249.72169	-2023.44482	1228.72144	
1301	13.000	252.91344	-2023.54578	1228.66199	
1302	13.010	259.00146	-2024.01001	1228.94629	
1303	13.020	262.95026	-2024.36572	1229.32117	
1304	13.030	266.02179	-2024.67590	1229.31189	
1305	13.040	267.70303	-2025.24780	1229.64661	
1306	13.050	271.43765	-2026.06030	1230.11145	
1307	13.060	275.02658	-2026.81824	1230.65881	
1308	13.070	278.06116	-2027.46155	1230.91284	
1309	13.080	283.15631	-2027.43542	1231.52063	
1310	13.090	286.05316	-2028.12793	1231.66541	
1311	13.100	289.84460	-2028.28418	1231.94031	
1312	13.110	292.64227	-2028.92163	1232.20874	
1313	13.120	295.49301	-2029.53638	1232.53467	
1314	13.130	297.83716	-2030.25281	1232.34827	
1315	13.140	301.59531	-2030.58643	1232.59375	
1316	13.150	305.48788	-2031.59631	1232.74524	
1317	13.160	308.88736	-2032.19678	1232.69202	
1318	13.170	313.03598	-2032.72864	1232.77136	
1319	13.180	315.92078	-2033.35559	1232.63391	
1320	13.190	318.62164	-2034.07434	1232.49023	
1321	13.200	321.50122	-2034.90833	1231.82568	
1322	13.210	324.62051	-2035.12964	1231.37817	
1323	13.220	330.69836	-2035.55823	1230.99365	
1324	13.230	332.37958	-2036.73389	1231.32495	
1325	13.240	337.06256	-2036.70862	1230.98389	
1326	13.250	341.55756	-2036.88489	1231.01123	
1327	13.260	346.92850	-2036.97498	1230.66418	
1328	13.270	353.43231	-2037.31628	1230.55298	
1329	13.280	358.70767	-2037.38794	1230.63599	
1330	13.290	365.01837	-2037.26428	1231.00391	
1331	13.300	369.88391	-2036.77112	1230.55042	
1332	13.310	377.76169	-2036.69189	1230.61438	
1333	13.320	383.86523	-2036.50549	1230.62305	
1334	13.330	387.61020	-2036.13660	1230.59082	
1335	13.340	391.28464	-2035.88196	1230.69812	
1336	13.350	398.21637	-2035.45154	1230.96899	
1337	13.360	400.47467	-2035.26221	1230.70886	
1338	13.370	405.68265	-2035.24622	1230.30713	
1339	13.380	409.85385	-2034.86499	1230.84998	
1340	13.390	413.89606	-2035.22473	1230.94263	
1341	13.400	417.47919	-2035.01978	1230.71033	
1342	13.410	422.70825	-2034.89270	1230.80957	
1343	13.420	425.87451	-2034.83557	1230.65405	
1344	13.430	428.78323	-2035.00085	1230.83948	
1345	13.440	430.97488	-2036.16699	1230.70093	
1346	13.450	433.20862	-2036.15771	1230.15784	
1347	13.460	433.44797	-2036.53088	1229.95349	
1348	13.470	436.78339	-2036.99158	1229.68823	
1349	13.480	439.28986	-2037.13489	1229.22363	
1350	13.490	442.02899	-2037.25513	1229.20691	
1351	13.500	445.17581	-2037.33374	1228.84387	
1352	13.510	447.51147	-2037.34070	1228.66211	
1353	13.520	451.05997	-2037.92407	1227.97754	
1354	13.530	453.59564	-2038.07813	1227.61914	
1355	13.540	455.34906	-2037.42664	1227.27844	
1356	13.550	457.68506	-2037.28027	1226.77893	
1357	13.560	459.87555	-2037.09607	1226.28992	
1358	13.570	462.67465	-2036.70654	1226.08960	
1359	13.580	467.86472	-2035.84021	1225.79858	
1360	13.590	468.52606	-2035.13977	1225.11816	
1361	13.600	474.75119	-2034.45337	1224.53284	
1362	13.610	476.48044	-2033.77393	1224.24463	
1363	13.620	479.68518	-2033.01746	1224.26587	
1364	13.630	483.95322	-2031.78162	1223.63672	
1365	13.640	487.01953	-2030.67725	1223.12976	
1366	13.650	492.69876	-2029.62207	1222.75171	
1367	13.660	495.75250	-2027.91064	1222.33228	
1368	13.670	499.79739	-2026.62183	1221.89465	
1369	13.680	503.24652	-2025.39294	1222.60107	
1370	13.690	506.14362	-2023.66064	1222.84155	
1371	13.700	510.17719	-2022.02429	1223.23218	
1372	13.710	515.07233	-2019.67151	1223.50012	
1373	13.720	518.33582	-2017.61096	1224.06738	
1374	13.730	521.81909	-2015.74768	1224.40063	
1375	13.740	524.65326	-2013.89417	1224.12341	
1376	13.750	526.94727	-2012.43005	1224.65869	
1377	13.760	530.26428	-2010.11218	1224.75110	
1378	13.770	535.48096	-2008.21362	1224.98047	
1379	13.780	536.80005	-2006.29932	1225.09839	
1380	13.790	539.70972	-2004.66479	1225.43860	
1381	13.800	544.20929	-2002.57751	1225.12097	
1382	13.810	547.04779	-2001.26135	1225.54614	
1383	13.820	550.50958	-1999.04138	1225.60535	
1384	13.830	553.23547	-1997.69385	1225.65088	
1385	13.840	558.61017	-1995.55701	1225.82922	
1386	13.850	561.52863	-1994.12659	1226.39600	
1387	13.860	564.71814	-1992.58069	1225.98889	
1388	13.870	567.63159	-1990.34949	1226.25757	
1389	13.880	568.29706	-1988.65930	1226.28149	
1390	13.890	572.71661	-1987.08289	1226.23694	
1391	13.900	576.49628	-1985.16028	1226.13892	
1392	13.910	580.34473	-1983.53271	1226.44446	
1393	13.920	583.59802	-1981.41516	1226.56506	
1394	13.930	587.12769	-1979.87854	1226.52246	
1395	13.940	589.14954	-1978.12427	1226.39734	
1396	13.950	591.41583	-1976.50989	1226.63135	
1397	13.960	593.36176	-1974.41199	1226.18030	
1398	13.970	595.76270	-1973.02307	1226.39807	
1399	13.980	598.30878	-1971.25610	1226.35449	
1400	13.990	600.85468	-1969.63525	1226.12988	
1401	14.000	603.95349	-1967.61707	1226.68481	
1402	14.010	606.44025	-1965.87158	1226.57751	
1403	14.020	609.16992	-1964.19214	1226.75940	
1404	14.030	611.24219	-1962.94458	1226.62549	
